{
  "accessors": [
    {
      "bufferView": 2,
      "componentType": 5126,
      "count": 1707,
      "max": [
        1.4943184852600098,
        0.07481887191534042,
        0.9870068430900574
      ],
      "min": [
        -1.4972259998321533,
        -0.07249868661165237,
        -0.9869999289512634
      ],
      "type": "VEC3"
    },
    {
      "bufferView": 2,
      "byteOffset": 20484,
      "componentType": 5126,
      "count": 1707,
      "max": [
        1.0,
        1.0,
        1.0
      ],
      "min": [
        -1.0,
        -1.0,
        -0.9999989867210388
      ],
      "type": "VEC3"
    },
    {
      "bufferView": 1,
      "componentType": 5126,
      "count": 1707,
      "max": [
        0.9999999403953552,
        1.0
      ],
      "min": [
        0.0,
        0.0
      ],
      "type": "VEC2"
    },
    {
      "bufferView": 0,
      "componentType": 5125,
      "count": 4482,
      "type": "SCALAR"
    },
    {
      "bufferView": 2,
      "byteOffset": 40968,
      "componentType": 5126,
      "count": 203,
      "max": [
        1.49399995803833,
        0.03894549980759621,
        0.9869999289512634
      ],
      "min": [
        -1.4972259998321533,
        -0.07249868661165237,
        -0.9798799753189087
      ],
      "type": "VEC3"
    },
    {
      "bufferView": 2,
      "byteOffset": 43404,
      "componentType": 5126,
      "count": 203,
      "max": [
        1.0,
        0.9993444085121155,
        0.9999819397926331
      ],
      "min": [
        -1.0,
        -0.9998179078102112,
        -0.9999712109565735
      ],
      "type": "VEC3"
    },
    {
      "bufferView": 1,
      "byteOffset": 13656,
      "componentType": 5126,
      "count": 203,
      "max": [
        0.9781811237335205,
        1.0
      ],
      "min": [
        0.0,
        0.0
      ],
      "type": "VEC2"
    },
    {
      "bufferView": 0,
      "byteOffset": 17928,
      "componentType": 5125,
      "count": 477,
      "type": "SCALAR"
    },
    {
      "bufferView": 2,
      "byteOffset": 45840,
      "componentType": 5126,
      "count": 20,
      "max": [
        0.8473734259605408,
        0.0670606940984726,
        -0.36177510023117065
      ],
      "min": [
        -0.2736937701702118,
        0.0670606940984726,
        -0.8758819699287415
      ],
      "type": "VEC3"
    },
    {
      "bufferView": 2,
      "byteOffset": 46080,
      "componentType": 5126,
      "count": 20,
      "max": [
        1.3542338805905274e-08,
        1.0,
        -0.0
      ],
      "min": [
        -2.7019607884426478e-08,
        1.0,
        -0.0
      ],
      "type": "VEC3"
    },
    {
      "bufferView": 1,
      "byteOffset": 15280,
      "componentType": 5126,
      "count": 20,
      "max": [
        0.1035277396440506,
        0.8303009867668152
      ],
      "min": [
        0.0,
        0.6037812232971191
      ],
      "type": "VEC2"
    },
    {
      "bufferView": 0,
      "byteOffset": 19836,
      "componentType": 5125,
      "count": 48,
      "type": "SCALAR"
    },
    {
      "bufferView": 2,
      "byteOffset": 46320,
      "componentType": 5126,
      "count": 633,
      "max": [
        1.49399995803833,
        0.051005713641643524,
        0.8906854391098022
      ],
      "min": [
        -1.49399995803833,
        -0.020864637568593025,
        -0.5500959157943726
      ],
      "type": "VEC3"
    },
    {
      "bufferView": 2,
      "byteOffset": 53916,
      "componentType": 5126,
      "count": 633,
      "max": [
        1.0,
        1.0,
        0.9914450645446777
      ],
      "min": [
        -1.0,
        -1.0,
        -0.9999890923500061
      ],
      "type": "VEC3"
    },
    {
      "bufferView": 1,
      "byteOffset": 15440,
      "componentType": 5126,
      "count": 633,
      "max": [
        0.6168138980865479,
        0.6461379528045654
      ],
      "min": [
        0.11240369081497192,
        0.6037812232971191
      ],
      "type": "VEC2"
    },
    {
      "bufferView": 0,
      "byteOffset": 20028,
      "componentType": 5125,
      "count": 1614,
      "type": "SCALAR"
    },
    {
      "bufferView": 2,
      "byteOffset": 61512,
      "componentType": 5126,
      "count": 359,
      "max": [
        1.4901423454284668,
        0.0497036874294281,
        0.8296451568603516
      ],
      "min": [
        -1.4940000772476196,
        -0.003412791993469,
        -0.28067222237586975
      ],
      "type": "VEC3"
    },
    {
      "bufferView": 2,
      "byteOffset": 65820,
      "componentType": 5126,
      "count": 359,
      "max": [
        1.0,
        0.9999994039535522,
        1.0
      ],
      "min": [
        -1.0,
        -1.0,
        -1.0
      ],
      "type": "VEC3"
    },
    {
      "bufferView": 1,
      "byteOffset": 20504,
      "componentType": 5126,
      "count": 359,
      "max": [
        0.8091588020324707,
        0.8111721277236938
      ],
      "min": [
        0.16470187902450562,
        0.6037812232971191
      ],
      "type": "VEC2"
    },
    {
      "bufferView": 0,
      "byteOffset": 26484,
      "componentType": 5125,
      "count": 828,
      "type": "SCALAR"
    },
    {
      "bufferView": 2,
      "byteOffset": 70128,
      "componentType": 5126,
      "count": 385,
      "max": [
        1.4940000772476196,
        0.05351164564490318,
        0.5025898218154907
      ],
      "min": [
        -1.4940000772476196,
        -0.0013490683631971478,
        -0.28690439462661743
      ],
      "type": "VEC3"
    },
    {
      "bufferView": 2,
      "byteOffset": 74748,
      "componentType": 5126,
      "count": 385,
      "max": [
        1.0,
        0.728479266166687,
        0.9999975562095642
      ],
      "min": [
        -1.0,
        -0.732214093208313,
        -0.7318693399429321
      ],
      "type": "VEC3"
    },
    {
      "bufferView": 1,
      "byteOffset": 23376,
      "componentType": 5126,
      "count": 385,
      "max": [
        0.8277133703231812,
        0.8418231010437012
      ],
      "min": [
        0.20006431639194489,
        0.6037812232971191
      ],
      "type": "VEC2"
    },
    {
      "bufferView": 0,
      "byteOffset": 29796,
      "componentType": 5125,
      "count": 1179,
      "type": "SCALAR"
    },
    {
      "bufferView": 2,
      "byteOffset": 79368,
      "componentType": 5126,
      "count": 32,
      "max": [
        1.4763919115066528,
        0.07475847750902176,
        0.9570050239562988
      ],
      "min": [
        -1.4758445024490356,
        0.07411140948534012,
        0.618626058101654
      ],
      "type": "VEC3"
    },
    {
      "bufferView": 2,
      "byteOffset": 79752,
      "componentType": 5126,
      "count": 32,
      "max": [
        -7.699745196987351e-07,
        1.0,
        -8.07002725196071e-05
      ],
      "min": [
        -0.0015681240474805236,
        0.9999931454658508,
        -0.003388307522982359
      ],
      "type": "VEC3"
    },
    {
      "bufferView": 1,
      "byteOffset": 26456,
      "componentType": 5126,
      "count": 32,
      "max": [
        0.5355061888694763,
        0.9682939648628235
      ],
      "min": [
        0.3852393329143524,
        0.031706035137176514
      ],
      "type": "VEC2"
    },
    {
      "bufferView": 0,
      "byteOffset": 34512,
      "componentType": 5125,
      "count": 90,
      "type": "SCALAR"
    },
    {
      "bufferView": 2,
      "byteOffset": 80136,
      "componentType": 5126,
      "count": 283,
      "max": [
        1.49399995803833,
        0.16844598948955536,
        0.08699989318847656
      ],
      "min": [
        -1.49399995803833,
        -0.05129215121269226,
        -1.8870000839233398
      ],
      "type": "VEC3"
    },
    {
      "bufferView": 2,
      "byteOffset": 83532,
      "componentType": 5126,
      "count": 283,
      "max": [
        1.0,
        1.0,
        0.9986563920974731
      ],
      "min": [
        -1.0,
        -0.9995993375778198,
        -0.9914450645446777
      ],
      "type": "VEC3"
    },
    {
      "bufferView": 1,
      "byteOffset": 26712,
      "componentType": 5126,
      "count": 283,
      "max": [
        0.9983807802200317,
        0.9887197017669678
      ],
      "min": [
        0.0,
        0.0
      ],
      "type": "VEC2"
    },
    {
      "bufferView": 0,
      "byteOffset": 34872,
      "componentType": 5125,
      "count": 822,
      "type": "SCALAR"
    },
    {
      "bufferView": 2,
      "byteOffset": 86928,
      "componentType": 5126,
      "count": 4,
      "max": [
        1.3644037246704102,
        0.09560421854257584,
        -0.1631959080696106
      ],
      "min": [
        -1.3611032962799072,
        0.09560421109199524,
        -1.7377796173095703
      ],
      "type": "VEC3"
    },
    {
      "bufferView": 2,
      "byteOffset": 86976,
      "componentType": 5126,
      "count": 4,
      "max": [
        1.0948270734445487e-08,
        -1.0,
        2.6204753922343116e-09
      ],
      "min": [
        7.962254855442552e-09,
        -1.0,
        -2.101398344223071e-08
      ],
      "type": "VEC3"
    },
    {
      "bufferView": 1,
      "byteOffset": 28976,
      "componentType": 5126,
      "count": 4,
      "max": [
        0.9615787863731384,
        0.48510482907295227
      ],
      "min": [
        0.6921738982200623,
        0.01875242590904236
      ],
      "type": "VEC2"
    },
    {
      "bufferView": 0,
      "byteOffset": 38160,
      "componentType": 5125,
      "count": 6,
      "type": "SCALAR"
    },
    {
      "bufferView": 2,
      "byteOffset": 87024,
      "componentType": 5126,
      "count": 96,
      "max": [
        1.4739999771118164,
        0.10922719538211823,
        -0.037081457674503326
      ],
      "min": [
        -1.4739999771118164,
        0.09560421109199524,
        -1.8670001029968262
      ],
      "type": "VEC3"
    },
    {
      "bufferView": 2,
      "byteOffset": 88176,
      "componentType": 5126,
      "count": 96,
      "max": [
        0.9914450645446777,
        2.289862777615781e-06,
        1.0
      ],
      "min": [
        -0.9914450645446777,
        -1.0,
        -0.9914450645446777
      ],
      "type": "VEC3"
    },
    {
      "bufferView": 1,
      "byteOffset": 29008,
      "componentType": 5126,
      "count": 96,
      "max": [
        0.9831565022468567,
        0.9999999403953552
      ],
      "min": [
        0.5358217358589172,
        0.0
      ],
      "type": "VEC2"
    },
    {
      "bufferView": 0,
      "byteOffset": 38184,
      "componentType": 5125,
      "count": 294,
      "type": "SCALAR"
    },
    {
      "bufferView": 2,
      "byteOffset": 89328,
      "componentType": 5126,
      "count": 50,
      "max": [
        1.4814999103546143,
        0.10922719538211823,
        0.07449984550476074
      ],
      "min": [
        -1.4814999103546143,
        0.10922716557979584,
        -1.874500036239624
      ],
      "type": "VEC3"
    },
    {
      "bufferView": 2,
      "byteOffset": 89928,
      "componentType": 5126,
      "count": 50,
      "max": [
        0.10535464435815811,
        -0.9937676191329956,
        0.10535433888435364
      ],
      "min": [
        -0.10535424202680588,
        -1.0,
        -0.10535608977079391
      ],
      "type": "VEC3"
    },
    {
      "bufferView": 1,
      "byteOffset": 29776,
      "componentType": 5126,
      "count": 50,
      "max": [
        0.33532607555389404,
        0.5088357329368591
      ],
      "min": [
        0.0018600858747959137,
        0.0018459889106452465
      ],
      "type": "VEC2"
    },
    {
      "bufferView": 0,
      "byteOffset": 39360,
      "componentType": 5125,
      "count": 150,
      "type": "SCALAR"
    },
    {
      "bufferView": 2,
      "byteOffset": 90528,
      "componentType": 5126,
      "count": 2568,
      "max": [
        0.37669801712036133,
        0.1264529824256897,
        -0.036040037870407104
      ],
      "min": [
        -0.37522000074386597,
        -0.1039159893989563,
        -0.03960803896188736
      ],
      "type": "VEC3"
    },
    {
      "bufferView": 2,
      "byteOffset": 121344,
      "componentType": 5126,
      "count": 2568,
      "max": [
        1.0,
        1.0,
        1.0
      ],
      "min": [
        -1.0,
        -1.0,
        -1.0
      ],
      "type": "VEC3"
    },
    {
      "bufferView": 1,
      "byteOffset": 30176,
      "componentType": 5126,
      "count": 2568,
      "max": [
        0.9138750433921814,
        0.9137465357780457
      ],
      "min": [
        0.32800185680389404,
        0.5000239610671997
      ],
      "type": "VEC2"
    },
    {
      "bufferView": 0,
      "byteOffset": 39960,
      "componentType": 5125,
      "count": 3960,
      "type": "SCALAR"
    }
  ],
  "asset": {
    "extras": {
      "author": "GeniusPilot2016 (https://sketchfab.com/GeniusPilot2016)",
      "license": "CC-BY-4.0 (http://creativecommons.org/licenses/by/4.0/)",
      "source": "https://sketchfab.com/3d-models/laptop-f69d66e7a3404a6b91d59882409097ab",
      "title": "Laptop"
    },
    "generator": "Sketchfab-15.17.0",
    "version": "2.0"
  },
  "bufferViews": [
    {
      "buffer": 0,
      "byteLength": 55800,
      "name": "floatBufferViews",
      "target": 34963
    },
    {
      "buffer": 0,
      "byteLength": 50720,
      "byteOffset": 55800,
      "byteStride": 8,
      "name": "floatBufferViews",
      "target": 34962
    },
    {
      "buffer": 0,
      "byteLength": 152160,
      "byteOffset": 106520,
      "byteStride": 12,
      "name": "floatBufferViews",
      "target": 34962
    }
  ],
  "buffers": [
    {
      "byteLength": 258680,
      "uri": "scene.bin"
    }
  ],
  "images": [
    {
      "uri": "textures/speaker_baseColor.png"
    }
  ],
  "materials": [
    {
      "doubleSided": true,
      "name": "body",
      "pbrMetallicRoughness": {
        "baseColorFactor": [
          0.597201,
          0.597202,
          0.597202,
          1.0
        ],
        "metallicFactor": 0.75,
        "roughnessFactor": 0.5
      }
    },
    {
      "doubleSided": true,
      "name": "black_plastic",
      "pbrMetallicRoughness": {
        "baseColorFactor": [
          0.100027,
          0.100027,
          0.100027,
          1.0
        ],
        "metallicFactor": 0.0,
        "roughnessFactor": 0.5
      }
    },
    {
      "doubleSided": true,
      "name": "touchpad",
      "pbrMetallicRoughness": {
        "baseColorFactor": [
          0.450447,
          0.450447,
          0.450447,
          1.0
        ],
        "metallicFactor": 0.75,
        "roughnessFactor": 0.5
      }
    },
    {
      "doubleSided": true,
      "name": "holes",
      "pbrMetallicRoughness": {
        "baseColorFactor": [
          0.0,
          0.0,
          0.0,
          1.0
        ],
        "metallicFactor": 0.0,
        "roughnessFactor": 0.5
      }
    },
    {
      "doubleSided": true,
      "name": "ports",
      "pbrMetallicRoughness": {
        "baseColorFactor": [
          0.149239,
          0.149239,
          0.149239,
          1.0
        ],
        "metallicFactor": 0.0,
        "roughnessFactor": 0.5
      }
    },
    {
      "doubleSided": true,
      "name": "metal",
      "pbrMetallicRoughness": {
        "baseColorFactor": [
          0.179018,
          0.179018,
          0.179018,
          1.0
        ],
        "roughnessFactor": 0.35
      }
    },
    {
      "doubleSided": true,
      "name": "speaker",
      "pbrMetallicRoughness": {
        "baseColorTexture": {
          "index": 0
        },
        "metallicFactor": 0.75,
        "roughnessFactor": 0.5
      }
    },
    {
      "doubleSided": true,
      "name": "display",
      "pbrMetallicRoughness": {
        "baseColorFactor": [
          0.0,
          0.0,
          0.0,
          1.0
        ],
        "metallicFactor": 0.0,
        "roughnessFactor": 0.0
      }
    },
    {
      "doubleSided": true,
      "name": "touchscreen_bezel",
      "pbrMetallicRoughness": {
        "baseColorFactor": [
          0.0478219,
          0.0478219,
          0.0478219,
          1.0
        ],
        "metallicFactor": 0.0,
        "roughnessFactor": 0.0
      }
    }
  ],
  "meshes": [
    {
      "name": "Object_0",
      "primitives": [
        {
          "attributes": {
            "NORMAL": 1,
            "POSITION": 0,
            "TEXCOORD_0": 2
          },
          "indices": 3,
          "material": 0,
          "mode": 4
        }
      ]
    },
    {
      "name": "Object_1",
      "primitives": [
        {
          "attributes": {
            "NORMAL": 5,
            "POSITION": 4,
            "TEXCOORD_0": 6
          },
          "indices": 7,
          "material": 1,
          "mode": 4
        }
      ]
    },
    {
      "name": "Object_2",
      "primitives": [
        {
          "attributes": {
            "NORMAL": 9,
            "POSITION": 8,
            "TEXCOORD_0": 10
          },
          "indices": 11,
          "material": 2,
          "mode": 4
        }
      ]
    },
    {
      "name": "Object_3",
      "primitives": [
        {
          "attributes": {
            "NORMAL": 13,
            "POSITION": 12,
            "TEXCOORD_0": 14
          },
          "indices": 15,
          "material": 3,
          "mode": 4
        }
      ]
    },
    {
      "name": "Object_4",
      "primitives": [
        {
          "attributes": {
            "NORMAL": 17,
            "POSITION": 16,
            "TEXCOORD_0": 18
          },
          "indices": 19,
          "material": 4,
          "mode": 4
        }
      ]
    },
    {
      "name": "Object_5",
      "primitives": [
        {
          "attributes": {
            "NORMAL": 21,
            "POSITION": 20,
            "TEXCOORD_0": 22
          },
          "indices": 23,
          "material": 5,
          "mode": 4
        }
      ]
    },
    {
      "name": "Object_6",
      "primitives": [
        {
          "attributes": {
            "NORMAL": 25,
            "POSITION": 24,
            "TEXCOORD_0": 26
          },
          "indices": 27,
          "material": 6,
          "mode": 4
        }
      ]
    },
    {
      "name": "Object_7",
      "primitives": [
        {
          "attributes": {
            "NORMAL": 29,
            "POSITION": 28,
            "TEXCOORD_0": 30
          },
          "indices": 31,
          "material": 0,
          "mode": 4
        }
      ]
    },
    {
      "name": "Object_8",
      "primitives": [
        {
          "attributes": {
            "NORMAL": 33,
            "POSITION": 32,
            "TEXCOORD_0": 34
          },
          "indices": 35,
          "material": 7,
          "mode": 4
        }
      ]
    },
    {
      "name": "Object_9",
      "primitives": [
        {
          "attributes": {
            "NORMAL": 37,
            "POSITION": 36,
            "TEXCOORD_0": 38
          },
          "indices": 39,
          "material": 8,
          "mode": 4
        }
      ]
    },
    {
      "name": "Object_10",
      "primitives": [
        {
          "attributes": {
            "NORMAL": 41,
            "POSITION": 40,
            "TEXCOORD_0": 42
          },
          "indices": 43,
          "material": 1,
          "mode": 4
        }
      ]
    },
    {
      "name": "Object_11",
      "primitives": [
        {
          "attributes": {
            "NORMAL": 45,
            "POSITION": 44,
            "TEXCOORD_0": 46
          },
          "indices": 47,
          "material": 0,
          "mode": 4
        }
      ]
    }
  ],
  "nodes": [
    {
      "children": [
        1
      ],
      "matrix": [
        1.0,
        0.0,
        0.0,
        0.0,
        0.0,
        2.220446049250313e-16,
        -1.0,
        0.0,
        0.0,
        1.0,
        2.220446049250313e-16,
        0.0,
        0.0,
        0.0,
        0.0,
        1.0
      ],
      "name": "Sketchfab_model"
    },
    {
      "children": [
        2
      ],
      "name": "root"
    },
    {
      "children": [
        3,
        11,
        16
      ],
      "matrix": [
        1.0,
        0.0,
        0.0,
        0.0,
        0.0,
        2.220446049250313e-16,
        1.0,
        0.0,
        0.0,
        -1.0,
        2.220446049250313e-16,
        0.0,
        0.0,
        0.0,
        0.0,
        1.0
      ],
      "name": "GLTF_SceneRootNode"
    },
    {
      "children": [
        4,
        5,
        6,
        7,
        8,
        9,
        10
      ],
      "matrix": [
        0.2808000147342682,
        0.0,
        0.0,
        0.0,
        0.0,
        0.28070022996703775,
        -0.007485263603731806,
        0.0,
        0.0,
        0.007485263603731806,
        0.28070022996703775,
        0.0,
        0.4982219338417053,
        0.015572725795209408,
        0.4161885678768158,
        1.0
      ],
      "name": "case_0"
    },
    {
      "mesh": 0,
      "name": "Object_4"
    },
    {
      "mesh": 1,
      "name": "Object_5"
    },
    {
      "mesh": 2,
      "name": "Object_6"
    },
    {
      "mesh": 3,
      "name": "Object_7"
    },
    {
      "mesh": 4,
      "name": "Object_8"
    },
    {
      "mesh": 5,
      "name": "Object_9"
    },
    {
      "mesh": 6,
      "name": "Object_10"
    },
    {
      "children": [
        12,
        13,
        14,
        15
      ],
      "matrix": [
        0.2808000147342682,
        0.0,
        0.0,
        0.0,
        0.0,
        -0.06542037013604697,
        0.2730730189106775,
        0.0,
        0.0,
        -0.2730730189106775,
        -0.06542037013604697,
        0.0,
        0.4982219338417053,
        0.03663472458720207,
        0.6670414209365845,
        1.0
      ],
      "name": "lid_3"
    },
    {
      "mesh": 7,
      "name": "Object_12"
    },
    {
      "mesh": 8,
      "name": "Object_13"
    },
    {
      "mesh": 9,
      "name": "Object_14"
    },
    {
      "mesh": 10,
      "name": "Object_15"
    },
    {
      "children": [
        17
      ],
      "matrix": [
        0.9827998876571655,
        0.0,
        0.0,
        0.0,
        0.0,
        0.025089464512539326,
        0.9408605463952979,
        0.0,
        0.0,
        -0.9824506381301674,
        0.026198526992258667,
        0.0,
        0.4961392879486084,
        0.00010824576020240784,
        0.4536319673061371,
        1.0
      ],
      "name": "keyboard_4"
    },
    {
      "mesh": 11,
      "name": "Object_17"
    }
  ],
  "samplers": [
    {
      "magFilter": 9729,
      "minFilter": 9987,
      "wrapS": 10497,
      "wrapT": 10497
    }
  ],
  "scene": 0,
  "scenes": [
    {
      "name": "Sketchfab_Scene",
      "nodes": [
        0
      ]
    }
  ],
  "textures": [
    {
      "sampler": 0,
      "source": 0
    }
  ]
}
