{
  "accessors": [
    {
      "bufferView": 1,
      "componentType": 5126,
      "count": 1209,
      "max": [
        24.2814998626709,
        8.998800277709961,
        37.95429992675781
      ],
      "min": [
        -24.52239990234375,
        -8.999600410461426,
        0.0
      ],
      "type": "VEC3"
    },
    {
      "bufferView": 1,
      "byteOffset": 14508,
      "componentType": 5126,
      "count": 1209,
      "max": [
        0.9999964237213135,
        0.9999997615814209,
        1.0
      ],
      "min": [
        -0.9999854564666748,
        -1.0,
        -1.0
      ],
      "type": "VEC3"
    },
    {
      "bufferView": 0,
      "componentType": 5125,
      "count": 3507,
      "type": "SCALAR"
    },
    {
      "bufferView": 1,
      "byteOffset": 29016,
      "componentType": 5126,
      "count": 3318,
      "max": [
        24.2814998626709,
        8.998800277709961,
        37.95429992675781
      ],
      "min": [
        -24.52239990234375,
        -8.999600410461426,
        1.5
      ],
      "type": "VEC3"
    },
    {
      "bufferView": 1,
      "byteOffset": 68832,
      "componentType": 5126,
      "count": 3318,
      "max": [
        1.0,
        1.0,
        0.9950663447380066
      ],
      "min": [
        -1.0,
        -1.0,
        -0.4465971291065216
      ],
      "type": "VEC3"
    },
    {
      "bufferView": 0,
      "byteOffset": 14028,
      "componentType": 5125,
      "count": 17802,
      "type": "SCALAR"
    }
  ],
  "asset": {
    "extras": {
      "author": "Microsoft (https://sketchfab.com/microsoft)",
      "license": "CC-BY-4.0 (http://creativecommons.org/licenses/by/4.0/)",
      "source": "https://sketchfab.com/3d-models/monitor-d80755755dba4169a9605f591296f53e",
      "title": "Monitor"
    },
    "generator": "Sketchfab-12.68.0",
    "version": "2.0"
  },
  "bufferViews": [
    {
      "buffer": 0,
      "byteLength": 85236,
      "name": "floatBufferViews",
      "target": 34963
    },
    {
      "buffer": 0,
      "byteLength": 108648,
      "byteOffset": 85236,
      "byteStride": 12,
      "name": "floatBufferViews",
      "target": 34962
    }
  ],
  "buffers": [
    {
      "byteLength": 193884,
      "uri": "scene.bin"
    }
  ],
  "materials": [
    {
      "doubleSided": true,
      "name": "wire_224198087",
      "pbrMetallicRoughness": {
        "baseColorFactor": [
          0.0034381443,
          0.0034381443,
          0.0034381443,
          1.0
        ],
        "metallicFactor": 0.0,
        "roughnessFactor": 0.6
      }
    }
  ],
  "meshes": [
    {
      "name": "Object_0",
      "primitives": [
        {
          "attributes": {
            "NORMAL": 1,
            "POSITION": 0
          },
          "indices": 2,
          "material": 0,
          "mode": 4
        }
      ]
    },
    {
      "name": "Object_1",
      "primitives": [
        {
          "attributes": {
            "NORMAL": 4,
            "POSITION": 3
          },
          "indices": 5,
          "material": 0,
          "mode": 4
        }
      ]
    }
  ],
  "nodes": [
    {
      "children": [
        1
      ],
      "matrix": [
        1.0,
        0.0,
        0.0,
        0.0,
        0.0,
        2.220446049250313e-16,
        -1.0,
        0.0,
        0.0,
        1.0,
        2.220446049250313e-16,
        0.0,
        0.0,
        0.0,
        0.0,
        1.0
      ],
      "name": "Sketchfab_model"
    },
    {
      "children": [
        2,
        3
      ],
      "name": "85334b9f59734402a7165e02a2ee8479.obj.cleaner"
    },
    {
      "mesh": 0,
      "name": "Object_2"
    },
    {
      "mesh": 1,
      "name": "Object_3"
    }
  ],
  "scene": 0,
  "scenes": [
    {
      "name": "Sketchfab_Scene",
      "nodes": [
        0
      ]
    }
  ]
}
